<svg xmlns="http://www.w3.org/2000/svg" viewBox="0 0 24 24" xmlns:v="https://vecta.io/nano"><path d="M7.67 18.28h2.09l.36 1.17h1.29l-2-5.68H8.04l-2.02 5.68h1.25l.39-1.17zm1.05-3.22h.02l.7 2.24H7.99l.73-2.24zm-3.03 2.71c0-.56-.18-1.12-.88-1.38.24-.12.7-.35.7-1.16 0-.59-.36-1.46-1.75-1.46H1v5.68h2.4c1.16 0 1.47-.2 1.79-.52.3-.29.49-.72.49-1.17zm-3.55-3.01H3.5c.54 0 .87.14.87.61S4 16 3.53 16H2.14v-1.24zm1.45 3.71H2.14v-1.52h1.51c.43 0 .85.19.85.69 0 .58-.33.83-.91.83zm16.96-2.37L23 19.45h-1.53l-1.75-2.49-.55.57v1.92h-1.19v-5.68h1.19v2.31l2.17-2.31h1.53l-2.32 2.33zM6.03 22.6c0-.54-.13-.63-.37-.74.29-.1.45-.37.45-.69 0-.25-.14-.82-.91-.82H3.73v2.91h.6v-1.14h.63c.45 0 .47.15.47.55 0 .3.02.45.06.59h.67v-.08c-.13-.05-.13-.16-.13-.58zm-1-.97h-.71v-.78h.76c.36 0 .43.23.43.38 0 .29-.15.4-.47.4zM7.01 8.81L7 8.34c-.01-.18.04-.38.06-.61s.05-.47.14-.72c.07-.25.14-.53.27-.79l.19-.41c.07-.14.16-.26.24-.39.16-.27.37-.51.58-.75.21-.25.46-.44.69-.66.25-.18.5-.39.76-.53l.76-.43c.25-.13.49-.22.71-.32l.9-.31c-.1-.26-.19-.53-.26-.81a4.52 4.52 0 0 1-.14-.94c.33.09.61.23.87.37.27.14.51.3.74.47.46.34.85.73 1.21 1.15a.95.95 0 0 1 .09 1.1l-.04.07a7.47 7.47 0 0 1-1.19 1.51 5.55 5.55 0 0 1-.78.64c-.14.1-.29.19-.45.28s-.33.17-.51.24c-.01-.2 0-.38 0-.56l.07-.52c.06-.34.15-.66.26-.97.01-.03.02-.06.04-.1-.11.01-.22.03-.35.05l-.63.13a4.54 4.54 0 0 0-.69.21c-.25.07-.46.2-.71.3-.22.14-.47.25-.68.41-.22.16-.44.32-.62.51-.09.09-.2.18-.28.28l-.24.31c-.17.2-.28.43-.39.64-.13.21-.2.43-.27.63-.06.2-.15.39-.18.56l-.09.45-.07.4v-.4zM1 20.35h2.36v.52h-.88v2.39h-.61v-2.39H.99v-.52h0zm6.38 0l-1.04 2.91h.64l.2-.6h1.07l.19.6h.66l-1.02-2.91h-.7zm-.03 1.81l.37-1.15h0l.36 1.15h-.74zm5.37-11.62c-.24.14-.48.24-.7.34l-.89.34c.11.25.21.52.29.8.08.29.15.59.16.93-.33-.08-.61-.21-.88-.34s-.52-.28-.75-.45c-.47-.33-.87-.71-1.24-1.11-.28-.31-.32-.75-.13-1.1l.04-.07a6.83 6.83 0 0 1 1.14-1.54c.23-.24.48-.46.75-.66l.44-.29c.16-.09.32-.18.51-.25a3.53 3.53 0 0 1 .01.56l-.05.53a6.09 6.09 0 0 1-.23.98l-.03.1.34-.06.63-.15c.22-.06.45-.14.68-.23.24-.08.46-.21.7-.32.22-.14.47-.26.67-.43.21-.16.43-.33.6-.53l.27-.29.22-.32c.17-.2.26-.43.37-.65.12-.21.19-.43.25-.64s.14-.39.16-.57l.07-.45.06-.4.02.4c0 .13.02.29.03.47.02.18-.02.39-.04.61-.02.23-.04.47-.12.73-.07.25-.12.53-.25.8l-.18.41c-.07.14-.15.26-.23.4-.15.28-.35.52-.56.77-.2.26-.45.45-.67.68l-.74.56c-.25.17-.5.32-.74.45zm2.41 9.81h2.07v.52h-1.46v.66h1.28v.51h-1.28v1.22h-.61v-2.91zm-3.86 0h.57v2.91h-.61l-1.19-2.07h0v2.07h-.57v-2.91h.64l1.16 2.02h0v-2.02h0zm11.35 2.25c0-.54-.13-.63-.37-.74.29-.1.45-.37.45-.69 0-.25-.14-.82-.92-.82h-1.47v2.91h.6v-1.14h.63c.45 0 .47.15.47.55 0 .3.02.45.06.59h.67v-.08c-.13-.05-.13-.16-.13-.58zm-1-.97h-.71v-.78h.76c.36 0 .43.23.43.38 0 .29-.15.4-.47.4zm-6.95.76c0 .87-.89.95-1.15.95-1.06 0-1.24-.61-1.24-.97h.58c0 .16.09.47.62.47.29 0 .61-.07.61-.37 0-.23-.22-.29-.53-.36l-.31-.07c-.47-.11-.92-.21-.92-.86 0-.32.17-.89 1.12-.89.89 0 1.13.58 1.13.94H14c-.02-.13-.07-.44-.6-.44-.23 0-.51.08-.51.35 0 .23.19.28.31.3l.71.17c.4.1.76.26.76.78zm3.53.35h1.61v.52H17.6v-2.91h2.14v.52H18.2v.61h1.42v.51H18.2v.75zm-4.97-3.29h-1.11v-5.68h1.25l2.25 3.95h.01v-3.95h1.11v5.68h-1.18l-2.32-4.05h-.01v4.05h0z" fill="#f4f4f4"/></svg>