<svg xmlns="http://www.w3.org/2000/svg" viewBox="0 0 68 24" fill="#f4f4f4" xmlns:v="https://vecta.io/nano"><path d="M16.34 14.44c-.37.32-.84.54-1.24.8l-1.31.59c-.43.17-.85.32-1.27.42-.4.13-.81.2-1.16.28l-.64.11.06-.18c.19-.58.33-1.18.43-1.81l.09-.98c.02-.34.01-.68-.02-1.05a7.49 7.49 0 0 0-.94.47l-.82.54a10.44 10.44 0 0 0-1.4 1.23c-.85.87-1.54 1.83-2.12 2.87l-.08.13c-.35.64-.29 1.46.23 2.04.68.76 1.43 1.47 2.3 2.07a8.76 8.76 0 0 0 1.4.83c.48.23.98.46 1.57.61h.07c-.03-.62-.16-1.17-.3-1.71a9.7 9.7 0 0 0-.53-1.49l1.65-.62 1.3-.64c.45-.23.92-.52 1.37-.83.47-.29.91-.69 1.38-1.04.42-.42.88-.79 1.25-1.26.38-.46.75-.91 1.04-1.42l.43-.74.33-.77c.24-.49.34-1.01.47-1.48.14-.47.19-.93.22-1.35s.1-.79.07-1.14l-.05-.87-.05-.75-.12.74-.13.84c-.04.32-.2.67-.3 1.05-.11.38-.24.79-.47 1.18-.2.4-.39.83-.69 1.21l-.42.59c-.15.19-.34.36-.51.54-.32.37-.72.68-1.12.98zM3.05 16.47l.14-.74.16-.84c.05-.32.22-.66.33-1.04.12-.38.27-.78.5-1.17.22-.39.41-.82.73-1.19l.44-.58c.15-.19.35-.35.52-.53.33-.36.74-.66 1.15-.95.39-.31.85-.51 1.26-.76.46-.19.87-.42 1.33-.55.43-.16.86-.29 1.28-.39.41-.12.82-.17 1.17-.25l.64-.09-.07.18a10.34 10.34 0 0 0-.48 1.8l-.13.97c-.03.34-.03.68 0 1.05a7.58 7.58 0 0 0 .95-.44l.83-.52a10.54 10.54 0 0 0 1.44-1.18c.87-.84 1.6-1.79 2.2-2.8l.08-.13c.37-.63.33-1.45-.17-2.05-.66-.78-1.39-1.51-2.24-2.14a9.97 9.97 0 0 0-1.37-.87c-.5-.26-1.01-.51-1.62-.68.01.64.12 1.19.25 1.74.12.53.29 1.03.49 1.51l-1.67.58-1.32.6c-.46.22-.93.49-1.4.79-.48.27-.93.66-1.4.99-.43.41-.9.76-1.29 1.23-.4.44-.78.89-1.08 1.39-.15.25-.33.47-.45.72l-.35.76c-.26.48-.37 1-.51 1.47-.16.47-.22.92-.26 1.34s-.12.79-.1 1.13l.03.87.02.75zm18.95.86h1.72v4.68h1.18v-4.68h1.72v-1.01H22v1.01zM42.68 1.87v-.02h-.07a.31.31 0 0 0 .07.02zm-11.52 9.4c0-1.1-.35-2.18-1.71-2.69.46-.23 1.36-.68 1.36-2.27 0-1.14-.7-2.85-3.42-2.85H22v11.1h4.7c2.27 0 2.87-.39 3.51-1.01.59-.57.96-1.41.96-2.28zm-6.93-5.88h2.66c1.05 0 1.7.28 1.7 1.19s-.72 1.24-1.64 1.24h-2.72V5.39zm2.84 7.26h-2.84V9.68h2.95c.84 0 1.67.38 1.67 1.34 0 1.13-.65 1.62-1.78 1.62zm4.77 1.91h2.44l.77-2.28h4.09l.71 2.28h2.52L38.46 3.47h-2.67l-3.95 11.1zm5.28-8.59l1.37 4.39h-2.83l1.42-4.39h.03zm-5.28 14.75c0-1.06-.25-1.24-.72-1.44.56-.19.88-.73.88-1.36 0-.49-.28-1.6-1.79-1.6h-2.87V22h1.17v-2.22h1.23c.88 0 .93.3.93 1.07 0 .58.05.88.12 1.15h1.31v-.15c-.25-.1-.25-.3-.25-1.13zm-1.95-1.89H28.5v-1.52h1.48c.7 0 .83.44.83.74 0 .56-.3.78-.92.78zm25.73.7h2.77v-1h-2.77v-1.2h3.02v-1.01h-4.18v5.69h4.31V21h-3.15v-1.47zm-21.15-3.21L32.44 22h1.25l.39-1.17h2.1l.37 1.17h1.29l-2-5.68h-1.37zm-.06 3.53l.73-2.25h.01l.71 2.25h-1.45zM64.74 3.47h-3l-4.23 4.51V3.47h-2.32v11.09h2.32v-3.75l1.08-1.12 3.43 4.87H65l-4.79-6.55 4.53-4.54zM49.62 22.01h1.19v-2.39h2.5v-1.01h-2.5v-1.28h2.85v-1.01h-4.04v5.69zm14.63-1.29c0-1.06-.26-1.24-.72-1.44.56-.19.88-.73.88-1.36 0-.49-.28-1.6-1.79-1.6h-2.87V22h1.17v-2.22h1.23c.88 0 .93.3.93 1.07 0 .58.05.88.13 1.15h1.31v-.15c-.25-.1-.25-.3-.25-1.13zm-1.95-1.89h-1.39v-1.52h1.48c.7 0 .83.44.83.74 0 .56-.3.78-.92.78zm-20.22 1.45h-.01l-2.26-3.96h-1.25V22h1.11v-4.05h.01L42 22h1.19v-5.68h-1.11v3.96zm5.15-1.51l-1.38-.34c-.24-.06-.6-.15-.6-.6 0-.51.54-.68.99-.68 1.04 0 1.13.6 1.17.85h1.14c0-.7-.47-1.83-2.22-1.83-1.84 0-2.18 1.11-2.18 1.75 0 1.25.88 1.46 1.8 1.67l.61.14c.6.15 1.03.26 1.03.71 0 .59-.63.73-1.19.73-1.04 0-1.2-.6-1.21-.92h-1.14c0 .71.35 1.9 2.43 1.9.5 0 2.24-.16 2.24-1.86 0-1.02-.71-1.34-1.49-1.53zM45.91 6.66h.03l4.53 7.91h2.32V3.47h-2.16v7.73h-.03l-4.41-7.73h-2.44v11.1h2.16V6.66z"/></svg>