<svg xmlns="http://www.w3.org/2000/svg" viewBox="0 0 68 24" fill="#f4f4f4" xmlns:v="https://vecta.io/nano"><path d="M3.59 24H2V1.01h1.59V24zM66 24h-1.59V1H66v23zM25.63 10.73h-2.98V1.02h2.98v9.72zM9.37 24H6.4V1h2.97v23zm45.61-13.28h-2.97v-9.7h2.97v9.71zM4.07 1h.87v22.99h-.87V1zm14.19 16.51c.06.05.09.08.13.1 1.56.69 2.16 1.7 1.97 3.32a3.03 3.03 0 0 1-2.78 2.73c-1.42.15-2.87.11-4.3.15h-1.77V12h1.59l3.91.09c1.7.13 2.87 1.44 2.82 3.02-.03.95-.48 1.65-1.56 2.39zm-5.21.77v4.21l4.13-.16c1.03-.11 1.59-.9 1.59-1.94 0-1-.55-1.77-1.59-1.89-1.36-.15-2.73-.15-4.14-.22zm0-1.37l3.73-.02c.98-.06 1.53-.78 1.51-1.72-.02-.98-.55-1.61-1.54-1.69l-3.33-.09c-.12 0-.25.02-.37.03v3.49zm29.62 2.99h-6.36c-.13 1.79 1.33 3.31 3.19 2.82.71-.18 1.17-.67 1.43-1.32.13-.32.29-.37.59-.3.33.08.66.1 1 .14-.09 1.1-1.11 2.23-2.37 2.57-.89.24-1.8.25-2.69-.01-1.52-.44-2.53-1.7-2.64-3.41-.05-.81-.02-1.65.17-2.44.43-1.87 1.99-2.95 3.98-2.88 1.82.07 3.24 1.32 3.55 3.18.09.52.1 1.04.15 1.64zm-1.59-1.2c-.08-1.64-1.12-2.57-2.63-2.42-1.21.12-2.22 1.31-2.04 2.42h4.67zm-19.28.79l.16-1.35c.41-1.98 1.98-3.14 4.11-3.06 1.93.07 3.45 1.4 3.67 3.32.09.8.1 1.65-.03 2.44-.32 1.99-1.92 3.2-3.99 3.14-2.23-.06-3.74-1.53-3.88-3.79v-.7h-.05zm6.62.17l-.15-1.26c-.24-1.24-1.16-2.08-2.29-2.12-1.25-.04-2.18.65-2.5 1.9-.25 1-.25 2 .08 2.99.35 1.03 1.24 1.65 2.3 1.64 1.04 0 1.92-.62 2.25-1.65.17-.52.22-1.08.31-1.51zm20.04-.15c.06-.49.08-1 .2-1.48.47-2.02 2.31-3.23 4.42-2.93 2.07.3 3.32 1.72 3.43 3.97.03.57 0 1.15-.1 1.71-.36 2.03-1.91 3.25-3.99 3.21-2.22-.05-3.74-1.5-3.89-3.73l-.04-.75h-.03zm1.45.17c.11.52.16 1.03.32 1.51.34 1.01 1.23 1.62 2.27 1.62s1.92-.61 2.27-1.63c.35-1.03.37-2.07.07-3.11-.32-1.11-1.23-1.79-2.33-1.79-1.14 0-2.03.65-2.35 1.81-.14.52-.17 1.06-.26 1.6zm-5.23-3.31h-1.04v-1.12h1.04l.01-1.79c0-.17.13-.38.27-.48.35-.25.74-.45 1.17-.71v2.95h1.41v1.12h-1.4v.46 4.61c0 1.02.16 1.17 1.18 1.13h.27l.19 1.22c-.76.19-1.48.24-2.18-.05-.57-.24-.84-.71-.85-1.32l-.06-5.32v-.72zm-13.12-4.34h1.4l.02.49.01 10.77c0 .43-.11.58-.54.53-.29-.03-.58 0-.89 0V12.04zM12.18 1h1.62v9.73h-1.62V1zm22.88 0h1.6v9.72h-1.6V1zm22.73 0h1.61v23h-1.61V1zM28.45 1h1.61v9.72h-1.61V1zm-8.6.02v9.7h-1.6v-9.7h1.6zm22.87 9.71h-1.59V1.01h1.59v9.72zm7.02 0h-1.58V1.01h1.58v9.72zM20.35 1h.85v9.73h-.85V1zm11.43 0h.86v9.72h-.86V1zm7.47 9.73h-.88V1.01h.88v9.72zm4.82 0h-.87V1.01h.87v9.72zm2.2 0h-.86V1h.86v9.72zM10.43 1h.86v9.73h-.86V1zm40.67 9.73h-.87V1.01h.87v9.72zM56.04 1h.86v9.72h-.86V1zm5.08 0h.86v22.92h-.86V1zm-44.74 9.74h-.88V1.01h.88v9.73zM26.69 1h.82v9.72h-.82V1zm13.7 9.73h-.64V1h.64v9.72zm7.03 0h-.66V1.01h.66v9.72zM16.89 1h.61v9.73h-.61V1zm16.88 9.73h-.62V1.01h.62v9.73zM62.5 1h.6v22.94l-.6.05V1z"/></svg>