<svg xmlns="http://www.w3.org/2000/svg" viewBox="0 0 24 24" fill="#f4f4f4" xmlns:v="https://vecta.io/nano"><path d="M5.11 14.15s.04.04.06.04c.69.3.95.75.86 1.46-.08.64-.54 1.13-1.23 1.2-.63.06-1.26.05-1.89.06h-.78v-5.2h.7l1.72.04c.75.06 1.26.63 1.24 1.33-.01.42-.21.73-.68 1.05zm-2.29.34v1.85l1.82-.07c.45-.05.7-.4.7-.85 0-.44-.24-.78-.7-.83-.6-.07-1.2-.07-1.82-.1zm0-.6h1.64c.43-.03.67-.34.66-.76 0-.43-.24-.71-.68-.74-.49-.04-.98-.03-1.47-.04-.05 0-.11 0-.16.01v1.54zm13.04 1.32h-2.8c-.06.79.58 1.46 1.41 1.24.31-.08.51-.29.63-.58.06-.14.13-.16.26-.13.14.03.29.04.44.06-.04.48-.49.98-1.04 1.13a2.15 2.15 0 0 1-1.18 0c-.67-.19-1.11-.75-1.16-1.5-.02-.36 0-.73.07-1.07.19-.82.88-1.3 1.75-1.27.8.03 1.43.58 1.56 1.4.04.23.04.46.07.72zm-.7-.53c-.04-.72-.49-1.13-1.16-1.06-.53.05-.98.58-.9 1.06h2.06zm-8.49.35l.07-.59c.18-.87.87-1.38 1.81-1.35.85.03 1.52.62 1.62 1.46.04.35.04.73-.01 1.08-.14.87-.85 1.41-1.75 1.38-.98-.03-1.64-.67-1.71-1.67v-.31zm2.91.07l-.07-.56c-.11-.55-.51-.91-1.01-.93-.55-.02-.96.28-1.1.84-.11.44-.11.88.04 1.31.16.45.55.73 1.01.72.46 0 .84-.27.99-.72.07-.23.1-.48.14-.66zm8.82-.06l.09-.65c.21-.89 1.02-1.42 1.94-1.29.91.13 1.46.76 1.51 1.75.01.25 0 .51-.04.75-.16.89-.84 1.43-1.75 1.41-.98-.02-1.65-.66-1.71-1.64 0-.11-.01-.22-.02-.33zm.64.07c.05.23.07.45.14.67a1.03 1.03 0 0 0 1 .71c.46 0 .84-.27 1-.72s.16-.91.03-1.37c-.14-.49-.54-.79-1.02-.79-.5 0-.89.29-1.03.8-.06.23-.08.47-.11.7zm-17.97 2H.5V6.89h.57v10.22zm22.43 0h-.57V6.89h.57v10.22zm-14.51-5.7H7.92V6.9h1.07v4.51zm-5.84-.01H2.08V6.89h1.07v4.51zm16.39 0h-1.07V6.89h1.07v4.51zm-2.8 2.25h-.46v-.49h.46v-.79c0-.07.06-.17.12-.21.15-.11.33-.2.52-.31v1.3H18v.49h-.62v.2 2.03c0 .45.07.51.52.5h.12l.08.54c-.33.09-.65.11-.96-.02-.25-.1-.37-.31-.37-.58l-.03-2.34v-.32zM1.24 6.89h.31v10.22h-.31V6.89zm9.73 4.85h.61l.01.22v4.74c0 .19-.05.26-.24.23-.13-.01-.25 0-.39 0v-5.19z"/><path d="M4.16 6.89h.58v4.51h-.58V6.89zm8.22 0h.58v4.51h-.58V6.89zm8.17 0h.58v4.51h-.58V6.89zM10 6.89h.58v4.52H10V6.89zm-3.08.01v4.5h-.58V6.9h.58zm8.21 4.51h-.57V6.9h.57v4.51zm2.53 0h-.57V6.9h.57v4.51zM7.09 6.89h.31v4.52h-.31V6.89zm4.11 0h.31v4.52h-.31V6.89zm2.69 4.52h-.31V6.9h.31v4.51zm1.73 0h-.31V6.9h.31v4.51zm.79-.01h-.31V6.88h.31v4.52zM3.53 6.89h.31v4.52h-.31V6.89zm14.62 4.52h-.31V6.9h.31v4.51zm1.77-4.52h.31v4.52h-.31V6.89zm1.83 0h.31v4.51h-.31V6.89zM5.67 11.41h-.31V6.89h.31v4.52zm3.7-4.52h.3v4.51h-.3V6.89zm4.93 4.51h-.23V6.88h.23v4.52zm2.52.01h-.24V6.89h.24v4.52zM5.85 6.89h.22v4.51h-.22V6.89zm6.07 4.52h-.22V6.89h.22v4.52zm10.32-4.52h.22v4.52l-.22.01V6.89z"/></svg>