<svg xmlns="http://www.w3.org/2000/svg" viewBox="0 0 68 24" xmlns:v="https://vecta.io/nano"><g fill="#f4f4f4"><path d="M57.25 12.5l2.25 10.97h-.94c-.73 0-1.45-.02-2.18 0-.32.01-.43-.12-.47-.41l-.19-1.07c-.88 0-1.74.05-2.59-.02-.66-.05-1.1.13-1.29.77-.19.61-.59.76-1.2.72-.88-.06-1.76-.01-2.71-.01l.17-.39 4.98-10.25c.12-.24.25-.34.52-.34h3.66zm-2.42 3.65s-.07 0-.11-.01l-1.26 3.14h1.84l-.47-3.13zM29.2 23.46c-1.1 0-2.19 0-3.28-.01-.08 0-.2-.14-.23-.24a5.24 5.24 0 0 1-.16-.88c-.02-.28-.16-.34-.41-.33l-2.84.02c-.15 0-.35.14-.44.27-.25.36-.36.91-.69 1.1-.35.2-.88.07-1.33.08h-2.15l.12-.32 5.03-10.35c.1-.22.22-.3.47-.3h3.39c.21 0 .32.04.37.28l2.16 10.54c0 .02 0 .05-.01.14zm-4.15-4.18l-.48-3.14c-.03 0-.07 0-.1-.01l-1.26 3.15h1.84zm-8.1.59l-.31 2.84c-.01.11-.14.24-.25.3-1.22.58-2.5.78-3.83.51-1.73-.35-3.07-1.8-3.35-3.76-.45-3.14 1.16-5.83 3.64-6.99 1.5-.7 3.04-.68 4.57-.02.21.09.29.19.25.44l-.3 2.82c-.08-.07-.13-.1-.18-.14-.57-.56-1.26-.74-2.04-.59-1.74.33-2.83 2.1-2.32 3.8.36 1.23 1.65 1.85 2.94 1.4.39-.14.75-.38 1.18-.6zM23.42 2.5l-.93 5h1.84c.12 0 .24.09.41.16-.01-.1-.06-.27-.04-.44.09-1.4 1.26-2.6 2.69-2.74.35-.03.71-.04 1.05.02 1.5.24 2.31 1.55 1.91 3.07a2.87 2.87 0 0 1-2.15 2.15c-1.04.28-2.05.2-2.85-.63-.28-.29-.45-.68-.68-1.03l-.32 1.58h-4.91l1.34-7.16h2.66zm4.08 5.39c.41 0 .73-.39.72-.85 0-.36-.23-.58-.58-.58-.41 0-.74.38-.72.84.01.35.25.59.58.59zm3.49 15.56l1.54-10.93h3.53l-.31 2.32-1.14 8.08c-.08.55-.07.55-.63.55h-2.53c-.14 0-.28-.01-.45-.02zm10.89-1.94l-1.19 1.51a.83.83 0 0 1-.75.37c-1.15-.02-2.31 0-3.47 0h-.48c.07-.14.1-.22.15-.28l3.43-4.38c.2-.26.42-.38.76-.37l3.78.02c.16 0 .37.12.46.25l2.78 4.59c.03.04.04.09.09.19l-.35.03h-3.7c-.25 0-.4-.08-.53-.3l-.98-1.62zm-4.33-9.02l.33-.03h3.54c.25 0 .4.08.52.3l.99 1.72c.32-.39.65-.71.88-1.09.4-.68.94-.88 1.71-.83 1.1.07 2.2.02 3.38.02-.09.14-.14.24-.21.32l-3.31 4.18c-.27.35-.57.48-.99.47-1.21-.01-2.41 0-3.62-.01-.15 0-.37-.08-.44-.2l-2.7-4.64c-.03-.05-.04-.11-.08-.2zm15.96-2.83h-2.22l.08-.55-.2.15c-1.11 1.06-2.69.64-3.12-.83-.35-1.2.18-2.76 1.17-3.53.75-.58 2.07-.68 2.66.26.02.03.06.04.09.06.02-.01.04-.01.04-.02.05-.18.05-.47.16-.52.21-.09.48-.05.72-.06h1.56l-.95 5.04zm-1.86-2.55c0-.38-.23-.63-.58-.63-.4 0-.7.34-.71.81 0 .39.21.63.58.62.42 0 .72-.34.72-.8zm-14.92.3c.02.4.09.68.42.81.32.13.57-.01.82-.21a.62.62 0 0 1 .43-.12l1.5.3c-.26.52-.6.9-1.05 1.19-.87.55-1.81.63-2.76.32-1.16-.38-1.74-1.5-1.5-2.77.36-1.92 2.53-3.04 4.31-2.22.98.45 1.51 1.44 1.3 2.49-.02.09-.21.21-.32.21h-2.69-.45zm.18-.93h1.21c.05-.35-.1-.55-.41-.61-.35-.07-.65.15-.8.61zM10.57 2.3c.02-.3 0-.57.05-.82A1.27 1.27 0 0 1 11.65.39a1.29 1.29 0 0 1 1.4.53c.16.21.32.48.33.73l.02 3.62c-.04 0-.1.03-.17.03h-3.07c-.78-.02-1.51-.66-1.64-1.41-.14-.84.38-1.52 1.23-1.59.27-.02.54 0 .81 0zm6.16 6.44c0 .1 0 .19.02.27.07.85-.41 1.53-1.19 1.65-.73.11-1.54-.44-1.6-1.25-.1-1.16-.06-2.33-.06-3.49 0-.07.16-.19.25-.19l3.15.02c.8.03 1.56.89 1.55 1.68 0 .71-.55 1.26-1.33 1.32-.25.02-.51 0-.79 0z"/><path d="M34.14 4.59l.72.05-.32 1.6c-.02.07-.22.16-.33.15-.35-.04-.47.11-.52.44l-.46 2.52c-.04.24-.12.33-.37.32-.67-.02-1.34 0-2.08 0l.59-3.24-.63-.06.26-1.42c.04-.25.13-.38.4-.34.24.03.36-.07.38-.31.02-.19.07-.38.11-.57q.1-.55.68-.55h1.8l-.23 1.41z"/></g><path d="M16.68 2.29c.44.04.83.02 1.18.12.82.23 1.16 1.07.79 1.83-.33.67-.89 1.03-1.65 1.04h-2.76c-.24 0-.32-.09-.32-.32l.01-2.99c.02-.9.63-1.54 1.41-1.56.74-.01 1.29.49 1.33 1.23v.64zM13.4 7.61v1.44c-.03.89-.63 1.55-1.41 1.56-.74.01-1.28-.48-1.34-1.22V9c.03-.25-.05-.35-.33-.32-.23.03-.47.02-.69-.03-.98-.19-1.39-1.13-.88-1.99.35-.59.88-.9 1.57-.91h2.76c.26 0 .34.11.33.35v1.51z" fill="#d3d3d3"/><path d="M53.91 9.11l.92-1.5.95.59a.82.82 0 0 0 .37.1c.13 0 .25-.09.37-.14-.34-.58-.11-.26-.2-.33-.21-.15-.46-.24-.68-.38-.92-.55-1.04-1.7-.23-2.42.65-.58 1.43-.65 2.23-.51.49.09.95.31 1.47.48l-.8 1.33c-.29-.15-.54-.31-.82-.39-.12-.04-.29.08-.43.12.08.11.14.25.25.33.13.1.3.14.45.22 1.03.49 1.26 1.71.47 2.55-.66.71-1.53.82-2.41.64-.63-.13-1.23-.44-1.91-.69zm-9.22-2.57l-.57-.13c-.66-.1-1.02.12-1.17.78l-.4 2.06c-.02.13-.06.25-.09.4h-2.38l.33-1.78.54-2.86c.05-.3.17-.41.48-.39.57.03 1.14 0 1.75 0l-.06.61c.53-.71 1.15-.9 1.94-.69l-.37 2zm-.12 3.13l.34-1.79.55-2.94c.02-.12.13-.31.2-.31l2.25-.01-.56 2.98L47 9.39c-.02.1-.15.26-.24.26l-2.2.01zm2.47-7.76c.74 0 1.27.46 1.28 1.11 0 .69-.65 1.27-1.44 1.28-.73 0-1.27-.47-1.27-1.12 0-.71.63-1.27 1.43-1.27z" fill="#f4f4f4"/></svg>