<svg xmlns="http://www.w3.org/2000/svg" viewBox="0 0 24 24" xmlns:v="https://vecta.io/nano"><g fill="#f4f4f4"><path d="M22.49 12.23l1.01 4.95h-.42-.98c-.15 0-.19-.05-.21-.18-.02-.16-.05-.31-.09-.48h-1.17c-.3-.02-.49.06-.58.35-.08.27-.27.34-.54.33-.4-.03-.79 0-1.22 0 .03-.07.05-.13.08-.18l2.25-4.62a.22.22 0 0 1 .24-.15h1.65zm-1.1 1.64h-.05l-.57 1.42h.83l-.21-1.41zm-11.55 3.3H8.36c-.04 0-.09-.06-.1-.11-.03-.13-.06-.26-.07-.4-.01-.13-.07-.15-.18-.15H6.73c-.07 0-.16.06-.2.12-.11.16-.16.41-.31.5-.16.09-.4.03-.6.03h-.97c.02-.06.03-.1.05-.14l2.27-4.67c.05-.1.1-.14.21-.14h1.53c.1 0 .14.02.17.13l.97 4.76v.06zm-1.88-1.89l-.22-1.41h-.05l-.57 1.42h.83zm-3.65.27l-.14 1.28c0 .05-.06.11-.11.13a2.72 2.72 0 0 1-1.73.23c-.78-.16-1.38-.81-1.51-1.7-.2-1.42.52-2.63 1.64-3.15.68-.31 1.37-.31 2.06 0 .09.04.13.09.11.2l-.14 1.27c-.04-.03-.06-.05-.08-.06-.26-.25-.57-.33-.92-.27-.79.15-1.28.95-1.05 1.71.16.55.74.84 1.33.63.18-.06.34-.17.53-.27zm2.92-7.83l-.42 2.26h.83c.06 0 .11.04.18.07 0-.05-.02-.12-.02-.2.04-.63.57-1.17 1.21-1.23a2.46 2.46 0 0 1 .47 0c.68.11 1.04.7.86 1.39-.13.51-.47.83-.97.97-.47.13-.93.09-1.29-.28-.13-.13-.2-.31-.31-.47l-.14.71H5.42l.6-3.23h1.2zm1.84 2.43c.18 0 .33-.18.33-.38a.24.24 0 0 0-.26-.26c-.19 0-.33.17-.33.38 0 .16.11.27.26.26zm1.57 7.01l.69-4.93h1.59l-.14 1.05-.51 3.64c-.03.25-.03.25-.29.25h-1.14-.2z"/><path d="M15.55 16.29l-.54.68c-.09.12-.19.17-.34.17h-1.56-.22l.07-.13 1.55-1.98c.09-.12.19-.17.34-.17h1.7c.07 0 .17.05.21.11l1.25 2.07.04.08c-.06 0-.11.01-.16.01h-1.67a.25.25 0 0 1-.24-.14l-.44-.73zm-1.95-4.07c.06 0 .1-.01.15-.01h1.6c.11 0 .18.03.24.14l.44.77c.14-.18.29-.32.4-.49.18-.3.42-.39.77-.37.49.03.99 0 1.52 0l-.09.15-1.49 1.88c-.12.16-.26.21-.45.21h-1.63c-.07 0-.17-.04-.2-.09l-1.22-2.09c-.01-.02-.02-.05-.03-.09zm7.2-1.28h-1l.04-.25-.09.07c-.5.48-1.21.29-1.41-.37-.16-.54.08-1.24.53-1.59.34-.26.93-.31 1.2.12 0 .01.03.02.04.03 0 0 .02 0 .02-.01.02-.08.02-.21.07-.23.09-.04.22-.02.33-.03h.7l-.43 2.27zm-.84-1.14c0-.17-.1-.28-.26-.28-.18 0-.32.15-.32.36 0 .18.1.28.26.28.19 0 .32-.15.32-.36zm-6.73.13c0 .18.04.31.19.36.14.06.26 0 .37-.1.05-.04.13-.06.2-.05.22.03.43.09.68.14-.12.23-.27.41-.47.54-.39.25-.82.28-1.25.14-.52-.17-.79-.67-.68-1.25.16-.87 1.14-1.37 1.94-1a1.01 1.01 0 0 1 .59 1.12c0 .04-.09.09-.14.1h-1.21-.2zm.08-.42h.55c.02-.16-.05-.25-.19-.27-.16-.03-.29.07-.36.27zM1.43 7.63c0-.14 0-.26.02-.37.05-.26.2-.43.46-.49s.48.03.63.24c.07.1.14.22.15.33v1.63c-.02 0-.05.02-.07.02H1.24a.8.8 0 0 1-.74-.64.59.59 0 0 1 .56-.72h.37zm2.78 2.9v.12c.03.38-.19.69-.53.74-.33.05-.69-.2-.72-.57-.04-.52-.03-1.05-.03-1.57 0-.03.07-.09.11-.09h1.42c.36.01.7.4.7.76 0 .32-.25.57-.6.59H4.2zm7.85-1.87c.11 0 .2.02.32.02l-.14.72c0 .03-.1.07-.15.07-.16-.02-.21.05-.24.2l-.21 1.14c-.02.11-.05.15-.17.15h-.94l.27-1.46c-.1 0-.18-.02-.28-.03l.12-.64c.02-.11.06-.17.18-.15.11.02.16-.03.17-.14 0-.09.03-.17.05-.26q.05-.25.31-.25h.81l-.1.64z"/></g><path d="M4.19 7.62c.2.02.37.01.53.06a.56.56 0 0 1 .35.83c-.15.3-.4.47-.74.47H3.08c-.11 0-.14-.04-.14-.14V7.49c.01-.41.28-.7.64-.7.33 0 .58.22.6.55v.29zm-1.48 2.4v.65c-.01.4-.29.7-.64.7-.33 0-.58-.22-.6-.55v-.17c.01-.11-.02-.16-.15-.14-.1.01-.21 0-.31-.01-.44-.09-.63-.51-.4-.9.16-.27.4-.41.71-.41h1.24c.12 0 .15.05.15.16v.68z" fill="#d3d3d3"/><g fill="#f4f4f4"><path d="M20.98 10.7l.41-.68.43.26c.05.03.11.05.17.04.06 0 .11-.04.17-.06-.15-.26-.05-.12-.09-.15-.1-.07-.21-.11-.31-.17-.42-.25-.47-.77-.11-1.09.29-.26.65-.29 1.01-.23.22.04.43.14.66.22l-.36.6c-.13-.07-.24-.14-.37-.18-.05-.02-.13.04-.2.06.04.05.07.11.11.15.06.04.14.06.21.1a.7.7 0 0 1 .21 1.15c-.3.32-.69.37-1.09.29-.29-.06-.55-.2-.86-.31zm-4.16-1.16l-.26-.06c-.3-.05-.46.05-.53.35l-.18.93c-.01.06-.03.11-.04.18h-1.07l.15-.8.24-1.29c.02-.13.08-.18.22-.18h.79c0 .09-.02.16-.03.28.24-.32.52-.41.88-.31l-.17.9zm-.05 1.41l.15-.81.25-1.32c.01-.05.06-.14.09-.14h1.01l-.25 1.34-.16.81c-.01.05-.07.12-.11.12h-.99z"/><path d="M17.88,7.45c.33,0,.57.21.58.5,0,.31-.29.57-.65.58-.33,0-.57-.21-.57-.51,0-.32.28-.57.65-.57Z"/></g></svg>