<svg xmlns="http://www.w3.org/2000/svg" viewBox="0 0 24 24" xmlns:v="https://vecta.io/nano"><path d="M5.23 14.28H6.3v-3.13H5.23v3.13zm1.45-5.27h-.72v.72h.72v-.72zm-4.07.36H1.57v.91h.96c.61 0 .96.3.96.85s-.35.87-.96.87h-.96v-1.71H.5v3.99h1.07v-1.37h1.02c1.24 0 1.97-.67 1.97-1.82 0-1.08-.7-1.73-1.95-1.73h0zM7.4 8.29H5.23v2.17H7.4V8.29zm-.35 1.8H5.6V8.64h1.45v1.45zm6.3-.72h-.98v.91h.93c.61 0 .96.3.96.85s-.35.87-.96.87h-.93v-1.71H11.3v3.99h1.07v-1.37h.98c1.24 0 1.97-.67 1.97-1.82 0-1.08-.72-1.73-1.97-1.73zm9.04 1.15l-.93 2.34-.93-2.34h-1.11l1.48 3.77-.57 1.43h1.13l2.04-5.19h-1.11zm-4.83-.02c-.65 0-1.15.15-1.71.43l.33.74c.39-.22.78-.33 1.13-.33.52 0 .78.22.78.63v.07h-1.04c-.93 0-1.43.43-1.43 1.13s.48 1.17 1.3 1.17a1.56 1.56 0 0 0 1.19-.5v.41h1.06V11.8c-.04-.8-.61-1.3-1.61-1.3zm.64 2.52c-.11.32-.43.57-.87.57-.37 0-.59-.19-.59-.48s.2-.43.61-.43h.85v.33zm-9.15.44c-.52 0-.89-.41-.89-1.02s.37-1 .89-1a1.02 1.02 0 0 1 .85.41l.72-.52c-.33-.5-.91-.8-1.63-.8-1.13-.02-1.91.76-1.91 1.91s.78 1.91 1.91 1.91c.78 0 1.36-.32 1.67-.83l-.74-.5c-.19.3-.48.45-.87.45h0z" fill="#f4f4f4"/></svg>