<svg xmlns="http://www.w3.org/2000/svg" viewBox="0 0 68 24" xmlns:v="https://vecta.io/nano"><path d="M14.28 18.64h3.13V9.51h-3.13v9.13zM18.49 3.3h-2.11v2.11h2.11V3.3zM6.66 4.33H3.63v2.65h2.81c1.78 0 2.81.86 2.81 2.49s-1.03 2.54-2.81 2.54H3.63V7.04H.5v11.61h3.13v-4H6.6c3.62 0 5.73-1.95 5.73-5.3 0-3.13-2.05-5.03-5.67-5.03h0zM20.6 1.19h-6.32v6.32h6.32V1.19zm-1.03 5.25h-4.21V2.22h4.21v4.22zm18.37-2.11h-2.86v2.65h2.7c1.78 0 2.81.86 2.81 2.49s-1.03 2.54-2.81 2.54h-2.7V7.04h-3.13v11.61h3.13v-4h2.86c3.62 0 5.73-1.95 5.73-5.3 0-3.13-2.11-5.03-5.73-5.03zm26.32 3.35l-2.7 6.81-2.7-6.81h-3.24l4.32 10.97-1.67 4.16h3.3l5.94-15.13h-3.24zm-14.05-.06c-1.89 0-3.35.43-4.97 1.24l.97 2.16c1.13-.65 2.27-.97 3.3-.97 1.51 0 2.27.65 2.27 1.84v.22h-3.03c-2.7 0-4.16 1.24-4.16 3.3s1.4 3.4 3.78 3.4c1.51 0 2.59-.54 3.46-1.46v1.19h3.08v-7.13c-.1-2.32-1.78-3.78-4.7-3.78zm1.84 7.35c-.32.92-1.24 1.67-2.54 1.67-1.08 0-1.73-.54-1.73-1.4S48.37 14 49.56 14h2.49v.97zm-26.64 1.3c-1.51 0-2.59-1.19-2.59-2.97s1.08-2.92 2.59-2.92c1.08 0 1.89.43 2.49 1.19l2.11-1.51c-.97-1.46-2.65-2.32-4.76-2.32-3.3-.05-5.57 2.22-5.57 5.57s2.27 5.57 5.57 5.57c2.27 0 3.95-.92 4.86-2.43l-2.16-1.46c-.54.86-1.41 1.3-2.54 1.3h0z" fill="#17ff00"/></svg>