<svg xmlns="http://www.w3.org/2000/svg" viewBox="0 0 68 24" fill="#f4f4f4" xmlns:v="https://vecta.io/nano"><path d="M4.81 7.01c1.19-.15 2.07.3 2.84 1.13l2.65 2.67c.94.93 1.67.94 2.59.02l3-3.02c.88-.92 1.99-.86 3.1-.79.15 0 .31.18.44.31l2.18 2.18c1.42 1.47 1.41 3.57-.03 5.02l-2.04 2.06c-.32.34-.66.46-1.13.47-1.09.03-2-.24-2.76-1.09l-2.69-2.72c-.89-.91-1.77-.94-2.67-.04l-2.92 2.93c-.98 1.06-2.21.93-3.44.88-.15 0-.31-.19-.44-.31l-2.18-2.18c-1.47-1.51-1.45-3.56.03-5.07l1.69-1.71c.5-.55 1.02-.96 1.76-.73zm-.1-.77l.42-.56 3.93-3.93c1.31-1.27 3.38-1.33 4.7-.08l4.11 4.09c.08.08.13.19.26.38-.36.03-.67-.03-.9.08-.66.31-1.37.59-1.91 1.06-1.05.92-2 1.96-2.99 2.94-.6.6-.88.6-1.5 0L8.65 8.04C7.63 6.95 6.59 5.93 4.7 6.25zm.09 11.63l.74-.04c.89 0 1.63-.35 2.26-.97l3.01-3.01c.65-.66.9-.66 1.58.01l2.05 2.05c.99 1.03 1.95 2.1 3.77 1.89l-.49.6-3.8 3.79c-1.37 1.35-3.43 1.41-4.83.09l-3.98-3.96c-.09-.09-.15-.22-.31-.45zm22.76-2.05V9.4c0-2.99 2.22-5.22 5.23-5.23h3.77c2.61.02 4.7 1.72 5.08 4.29.25 1.72.32 3.49-.13 5.2-.56 2.1-2.53 3.57-4.71 3.57h-5.5c-.38 0-.83.02-.81-.5.01-.51.46-.48.84-.48h5.25c2.2-.02 3.88-1.48 4.09-3.65.11-1.16.09-2.34.03-3.51-.14-2.33-1.8-3.84-4.13-3.85-1.26 0-2.51.05-3.77-.02-2.17-.12-4.26 1.62-4.26 4.29v12.97c0 .19.05.39-.02.55s-.26.38-.39.37c-.18 0-.4-.17-.51-.33-.09-.13-.04-.36-.04-.54V15.8h0zM50.5 4.16c2.01-.27 3.24.98 4.47 2.27l2.79 2.79c.58.56.96.54 1.53-.03l3.75-3.76c1.2-1.24 2.7-1.38 4.27-1.23.18.02.46.34.45.51 0 .18-.28.45-.48.49-.37.08-.78.05-1.17.03-.92-.04-1.68.27-2.32.92l-3.66 3.66c-1.09 1.1-2.09 1.12-3.19.03l-3.58-3.58c-.72-.74-1.55-1.12-2.59-1.04-.43.03-.88.06-1.29-.03-.24-.05-.43-.35-.64-.53.22-.17.42-.42.67-.49.31-.09.65-.02.98-.02zm.06 12.04c1.23.15 2.17-.35 3-1.24l3.48-3.5c.98-.96 2.03-.93 3.01.06l3.66 3.67c.67.69 1.46 1.04 2.43.99.39-.02.79-.04 1.17.04.2.05.47.33.46.5 0 .17-.3.46-.49.48-1.7.17-3.25-.11-4.48-1.48-1.07-1.19-2.26-2.28-3.39-3.41-.72-.71-1.02-.72-1.75 0l-3.4 3.4c-.98 1.03-2.1 1.62-3.55 1.52-.39-.03-.79.05-1.17-.03-.24-.05-.44-.31-.66-.48.21-.18.4-.45.65-.51.33-.09.69-.02 1.04-.02zm-5.09-4.63V6.82c0-1.09-.48-1.56-1.59-1.57h-1.3c-.35 0-.68-.08-.69-.53 0-.44.3-.54.66-.55h1.67c1.23.07 2.2.98 2.21 2.21v10.36c0 .19-.26.53-.42.54-.41.04-.54-.29-.54-.66v-5.06h0zm1.85-9.64c.01.4-.89 1.39-1.3 1.42-.38.03-1.41-.98-1.42-1.38 0-.4.93-1.36 1.35-1.38.4-.02 1.35.92 1.37 1.35z"/></svg>