<svg xmlns="http://www.w3.org/2000/svg" viewBox="0 0 68 24" fill="#f4f4f4" xmlns:v="https://vecta.io/nano"><path d="M18.38 19.78v.05.37.05h.03.03 1.29.05v-.47h0 .87.04.03v-.15-.15-.15h-.05-.84-.05 0v-.47h.03.04 2.68.06v.44c0 .02-.02.02-.03.02h-.08-.77-.05v.05.31.52.05h.03.04.81.06v.46h-.04-.36-.05v.41.03c.01.01.03.01.04.01h.37.04v.05.36.05h.45c.01-.04.01-.08.01-.11v-.11-.22s.03-.01.04-.01h.37.05c.01-.02 0-.03 0-.05v-.36-.05h.44c.02 0 .02.02.02.03v.03 2.22.05c-.02.01-.03 0-.05 0h-.36-.05c-.01.02 0 .03 0 .05v.36.05h-.46v-.03-.4-.03c.01-.01.03 0 .04 0h.37.05v-.44c-.02-.02-.03-.02-.05-.02h-.36-.04c-.01-.01 0-.03 0-.05v-.36-.05h-.43c-.02 0-.02.01-.02.02v.42c0 .02.02.02.02.02h.41.04v.04.41.04h-.04-.41-.03v.44l.05.02h.35.07c-.01.02 0 .03 0 .05v.36.05h-.03-.03-1.29-.05v-.05-.36-.05h-.15-.16-.15c-.01-.01-.01-.03-.01-.05v-.36-.05h-.44c-.02.01-.01.03-.01.04v.36.05c-.02.01-.03 0-.05 0h-.36-.05v.05.36.05h-.03-.87-.03v-.03-.88c0-.01.02-.01.02-.01h.41.03v.04.37.04h.43c.02-.15.02-.29.02-.44 0-.02-.02-.02-.02-.02h-.41-.04V23v-.37-.05h.05.37.05v-.04-.89h-.43c-.02.02-.02.03-.02.05v.36.05h-.15-.15-.31-.15-.16v.05.36.05h-.03-.87-.03v-.16-.15-.15c.02-.01.03 0 .05 0h.37.05v-.05-.41-.42-.05c-.02-.01-.03 0-.05 0h-.37-.04v-1.36c.01-.03.03-.02.04-.02h.37.05zm3.28 2.81h.45c.01-.02.01-.03.01-.05v-.76-.09-.03h-.05-.36-.05v-.05-.97-.32-.05c-.04 0-1.41-.01-1.83 0h-.04v.16.15.16h-.05-.37-.05v.16.15.16h.06 1.29.03.03v-.09-.18-.09-.09h.46v.03.87.03h-.05-.36-.05v.44c.05.02.09.02.13.02h.13.4.13.13v.05.36.05zm-.01.47v-.43-.03h-.04-.41v.15.15.15h.43.03zm.47.46v-.11-.11-.12-.11h-.45l-.01.44.44.01zm-7.95-9.35h3.26c.02 0 .02.01.02.02v3.24c0 .02-.02.02-.03.02h-3.24v-.03-.04-3.15-.06zm2.8.46h-.06-2.22-.03-.03v.06 1.82.41.05h.06 2.21.04.03v-2.33z"/><path d="M20.72 14.17h3.27v.06 3.15.06h-.03-3.24v-.03-.04-3.15-.06zm.47.47v.06 2.21.04.03h.06 2.21.04.03v-.06-2.21-.04-.03h-2.31zm-7.02 9.35v-3.27h.03.04 3.15.06v3.25c0 .01-.01.01-.02.01h-3.25zm.47-2.8v2.32c0 .01.01.01.02.01h2.3V21.2l-2.32-.01zm3.27-3.27v-.05-1.78-.04c.01-.01.03-.01.04-.01h.37.05 0v.06 1.29.05h.44c.01-.02.01-.03.01-.05v-.36-.05h.04.37.05v.45a3.24 3.24 0 0 0 .44.02c.01 0 .01-.02.01-.02v-.42h-.46v-.03-.4-.04h.05.36.05v-.12-.12-.11-.12h0 .05.37.04v1.86c-.02.02-.03.02-.05.02h-.82-.05c-.01.02 0 .03 0 .05v.36.05c-.02.01-.03 0-.05 0h-.37-.05v.03.05 1.27.06h-.03-.41-.03v-.05-.83-.05h-.05-.36-.05v-.03-.41-.02h.05.37.04v-.44c-.02-.02-.03-.02-.05-.02h-.25-.17 0z"/><path d="M18.38 16.03V16v-.4-.03c-.01-.01-.03 0-.04 0h-.36-.05v-.03-.03-.83-.05c.01-.01.03 0 .04 0h.37.05c.01-.02 0-.03 0-.05v-.36-.05h.45c.02 0 .02.02.02.02v.04 1.75.06h-.04-.38-.04zm-2.81 3.29v-.37-.07-.03h.44a.09.09 0 0 1 .01.05v.36.05h.05.41.43.05v.03.4.03c.01.01.03 0 .04 0h.36.05s.01.03.01.05v.35.05c-.01.02-.02.02-.03.02h-.87c-.01-.01-.01-.03-.01-.05v-.36-.05h-.05-.38-.05 0v-.44-.03h-.05-.29-.13 0zm4.21-3.75v-.46c-.01-.01-.03-.01-.05-.01h-.36-.05v-.93h.03.12.73.05v.03.4.03h-.15-.15-.15v.03.41c.02.03.03.02.05.02h.36.05v.43.03h-.47 0zm-4.21 4.21h-.33-.13c-.02.01-.01.03-.01.05v.37.05h-.93v-.44c.03-.02.06-.02.09-.02h.09.09.18v-.05-.36-.05h.03.86.05 0v.46h0zm-.5-1.87h.03v.43.03h-.12-.12-.11-.11v.05.36.05h-.45l-.02-.89m7.95-.02v.46h-.03-.04-1.28-.06v-.45c0-.02.02-.02.03-.02h.03 1.29.06zm-3.74 5.15v.15.15.15c.02.01.03 0 .05 0h.36.05v.03.41c-.01.02-.02.02-.03.02h-.23-.61-.05v-.04-.22-.62-.05h.44z"/><path d="M17.91 18.38h-.04-.9v-.15-.27-.05h.05.47.36.05 0v.25.22h0zm5.62 0h-.04-.84-.05v-.44c.01-.01.02-.01.04-.01h.89v.03.44h0zm-.46 1.4h.91c.02 0 .02.01.02.01v.43c-.02.01-.04.01-.05.01h-.71-.13-.04v-.45zm-6.09-.94h.05.36.05v.44c-.01.02-.03.02-.05.02h-.37-.05v-.04-.41-.04h0zm6.55 0v.04.4.04h-.44c-.02 0-.02-.02-.02-.02v-.44c.01-.01.03 0 .04 0h.37.04zm-3.75.94h-.36-.1v-.44c.01-.02.02-.02.03-.02h.4.03 0v.44.02zm-3.75 0v.03.4.03h-.44c-.02 0-.02-.01-.02-.02v-.45h0 .47 0z"/><path d="M16.98 18.84h-.03-.43c-.02 0-.02-.01-.02-.02v-.42c0-.02.01-.02.02-.02h.45v.42.04zm-.94-.46h-.46v-.15-.15-.15h.04.41c.01.05.01.1.01.15v.15.16zm3.74-2.35h-.03-.41-.03v-.42c0-.02 0-.02.01-.02h.44 0v.05.41zm3.75 2.35H24v.46h-.43-.03v-.04-.37-.05h0zm-8.42-3.28h.03 1.36v.05 1.29.06h-.03-1.37v-.04-1.3-.05zm7.95.01v1.39H23h-1.28-.05c-.01-.02 0-.04 0-.05v-.4-.9-.06h.03 1.36zm-6.56 7.95h-1.37c-.02 0-.02-.01-.02-.01v-1.36c0-.02.02-.02.03-.02h.03 1.29.06v.04 1.36zM4.46 4.73c.9-.11 1.57.23 2.15.85L8.62 7.6c.71.7 1.26.71 1.96.01l2.27-2.28c.67-.7 1.5-.65 2.34-.6.12 0 .24.14.33.23l1.65 1.65c1.08 1.11 1.06 2.7-.02 3.8l-1.55 1.56c-.24.26-.5.35-.86.36-.82.02-1.51-.19-2.08-.82l-2.03-2.06c-.67-.69-1.34-.71-2.02-.03L6.4 11.64c-.74.8-1.67.7-2.6.67-.11 0-.23-.14-.33-.24l-1.65-1.65c-1.11-1.15-1.1-2.7.03-3.84l1.28-1.29c.38-.42.77-.72 1.33-.56zm-.07-.59l.31-.43L7.67.74c.99-.96 2.56-1.01 3.56-.06l3.11 3.1c.06.06.1.15.2.29-.27.02-.5-.02-.68.06-.5.23-1.04.45-1.44.8-.8.69-1.51 1.48-2.26 2.23-.45.45-.67.45-1.13 0L7.38 5.51c-.77-.82-1.56-1.6-2.98-1.35zm.07 8.8l.56-.03c.67 0 1.24-.27 1.71-.74L9 9.89c.49-.5.68-.5 1.19 0l1.55 1.55c.75.78 1.48 1.59 2.86 1.43l-.37.46-2.87 2.87c-1.04 1.02-2.6 1.07-3.65.07l-3.01-3c-.07-.07-.12-.17-.23-.34zm25.89 2.54V9.63c0-2.73 2.03-4.75 4.76-4.76h3.43c2.38.01 4.28 1.56 4.63 3.91.23 1.57.29 3.18-.12 4.74-.51 1.92-2.31 3.25-4.29 3.25h-5.01c-.35 0-.75.02-.74-.45s.42-.43.77-.43h4.78c2-.02 3.54-1.35 3.73-3.33.1-1.06.09-2.13.02-3.2-.13-2.12-1.64-3.5-3.76-3.51-1.14 0-2.29.05-3.43-.01-1.97-.11-3.88 1.48-3.88 3.91v11.82c0 .17.04.36-.02.5-.06.15-.24.34-.36.34-.16 0-.37-.15-.46-.3-.08-.12-.04-.33-.04-.49v-6.13h0zM51.26 4.86c1.84-.25 2.96.9 4.08 2.07l2.54 2.54c.52.51.88.49 1.39-.02l3.42-3.42c1.09-1.13 2.46-1.26 3.9-1.12.16.02.42.31.41.47 0 .16-.26.41-.44.45-.34.08-.71.05-1.06.03a2.65 2.65 0 0 0-2.12.84l-3.34 3.34c-.99 1.01-1.91 1.02-2.91.02L53.87 6.8c-.66-.67-1.41-1.02-2.36-.95-.39.03-.8.06-1.18-.03-.22-.05-.39-.32-.58-.49.2-.16.38-.38.61-.45.28-.08.59-.02.89-.02zm.05 10.97c1.13.13 1.98-.32 2.74-1.13l3.17-3.19c.89-.88 1.85-.84 2.74.06l3.34 3.34c.61.63 1.33.95 2.21.9.35-.02.72-.04 1.06.04.18.04.43.3.42.46 0 .15-.27.42-.45.43-1.55.15-2.96-.1-4.09-1.35-.98-1.09-2.06-2.08-3.09-3.11-.66-.65-.93-.66-1.6 0l-3.1 3.1c-.89.94-1.92 1.47-3.23 1.39-.35-.02-.72.05-1.06-.02-.22-.05-.41-.28-.61-.43.2-.16.37-.41.59-.47.3-.08.63-.02.95-.02zm-4.64-4.23V7.27c0-.99-.44-1.42-1.44-1.43h-1.18c-.32 0-.62-.08-.63-.48 0-.4.27-.5.6-.5h1.52c1.12.06 2.01.89 2.02 2.01v9.44c0 .17-.23.48-.38.49-.37.04-.49-.27-.49-.6v-4.61h0zm1.69-8.78c.01.36-.81 1.26-1.18 1.3-.34.03-1.28-.89-1.29-1.26 0-.37.85-1.24 1.23-1.26.36-.02 1.23.84 1.25 1.23z"/></svg>