<svg xmlns="http://www.w3.org/2000/svg" viewBox="0 0 24 24" fill="#f4f4f4" xmlns:v="https://vecta.io/nano"><path d="M10.29 1.01l.44.1c.43.11.81.32 1.12.63l3.41 3.41c.02.02.03.04.06.08h-.37c-.84-.03-1.54.28-2.13.88l-2.51 2.52c-.32.32-.57.32-.89 0L6.86 6.06c-.55-.57-1.22-.83-2-.82h-.22l.11-.13 3.27-3.27a2.66 2.66 0 0 1 1.57-.79c.03 0 .05-.02.08-.03h.6zm5.09 12.98h-.74c-.47-.04-.86-.25-1.19-.59l-2.63-2.63c-.43-.42-1.02-.52-1.54-.25-.15.08-.28.19-.4.31l-2.52 2.51c-.44.44-.95.67-1.58.65h-.83c-.07 0-.16-.04-.21-.09l-1.99-1.99C.71 10.84.72 9.17 1.76 8.1l1.97-1.97c.05-.05.15-.09.23-.09h.9c.58-.01 1.06.21 1.47.61l2.53 2.53c.64.64 1.4.64 2.04 0l2.51-2.52c.42-.43.92-.65 1.53-.63H16a.37.37 0 0 1 .24.1l1.93 1.93c1.1 1.12 1.1 2.78 0 3.9l-1.96 1.95c-.05.05-.14.08-.21.08h-.63 0zm-10.71.83l.97-.13c.47-.11.87-.37 1.21-.71l2.59-2.59c.3-.3.57-.3.87 0l2.5 2.5c.61.63 1.33.94 2.2.91h.25c.01 0 .02 0 .05.02a1.06 1.06 0 0 0-.1.12L12 18.15c-1.14 1.14-2.86 1.13-4 0l-3.22-3.22-.1-.11zm14.09 5.25v.03.24.03h.04.84.03v-.3h0 .57.03c.02-.03.02-.07.02-.1v-.1-.1h-.03-.55-.03 0v-.31h.04 1.76.04v.3c0 .01-.01.01-.02.01h-.05-.51-.03v.03.21.34.03h.05.53.04v.3h-.03-.24-.03v.27c0 .02.02.02.03.02h.24.03V21v.24.03h.29v-.07-.07-.15h.03.24.03v-.03-.24-.03h.3c.01 0 .01.01.01.02v1.48.03h-.03-.24-.03v.03.24.03h-.31v-.28c0-.02.02-.02.03-.02h.24.03v-.28c-.01-.02-.02-.02-.03-.02h-.24-.03v-.03-.24-.03h-.28c-.01.1-.01.2-.01.29 0 .01.01.01.02.01h.27c.02 0 .02.02.02.02v.27.03h-.29c-.02 0-.02 0-.02.01v.28l.03.02h.23.05v.03.24.03h-.04-.84-.04v-.03-.24-.03h-.1-.1-.1v-.03-.24-.03h-.3v.03.24.03h-.03-.24-.03v.03.24.03h-.59c-.02 0-.02-.01-.02-.02v-.57h.29c.02 0 .02.02.02.03v.24.03H20c.01-.1.01-.19.01-.29 0-.01-.01-.01-.02-.01h-.27c-.02-.01-.02-.02-.02-.04v-.24-.03h.03.24.03v-.03-.58h-.28c-.01.01-.01.02-.01.03v.24.03h-.1-.1-.2-.1-.1v.03.24.03h-.59c-.02-.03-.02-.07-.02-.1v-.1-.1h.03.24.03v-.03-.27-.28-.03h-.03-.24-.03v-.89c0-.01.02-.01.03-.01h.25.03zm2.16 1.84h.29v-.03-.5-.06c-.01-.02-.02-.02-.03-.02h-.24-.03v-.03-.63-.21-.03h-1.2-.03v.1.1.1h-.03-.24-.03v.1.1.1h.04.84.04v-.06-.12-.06-.06h.3v.59c-.01.02-.02.02-.03.02h-.24-.03v.29c.03.02.06.02.09.02h.09.26.09.09v.03.24.03zm0 .31v-.28c0-.02-.01-.02-.02-.02h-.27v.1.1.1h.28zm.31.3v-.07-.07-.08-.07h-.29v.28h.28zM16 16.38h2.14l.01 2.14H16v-.04-2.07-.04zm1.84.31h-.04-1.46-.04v.04 1.19.27.03h.04 1.45.04v-1.54zm2.47-.31h2.15v.04 2.07.04h-2.15v-.04-2.07-.04zm.3.31v.04 1.45.03l.04.02h1.45.03l.02-.04v-1.45-.03l-1.52-.02zM16 22.83v-2.15h.04 2.07.04v2.13h-2.14zm.31-1.84v1.51h1.52v-1.51h-1.51z"/><path d="M18.46 18.84v-.03-1.17-.03h.03.25.03 0v.04.85.04h.28v-.03-.24-.03h.03.24.04v.29a2.81 2.81 0 0 0 .29.01v-.29h-.3v-.28-.03h.03.24.03v-.08-.08-.07-.08h0 .03.24.03v1.22c-.01.01-.02.01-.03.01h-.54-.03v.03.24.03h-.03-.24-.03v.05.83.04h-.29c-.02 0-.02-.02-.02-.03v-.55-.03h-.03-.24-.03v-.29-.01h.03.24.03v-.29c-.01-.02-.02-.02-.03-.02h-.16-.11 0z"/><path d="M18.77 17.6v-.28c0-.02-.02-.02-.03-.02h-.24-.03v-.04-.54-.03h.03.24.03v-.03-.24-.03h.29c.01 0 .01.01.01.02v1.17.04h-.03-.25-.03zm-1.85 2.16v-.25-.04c.09-.02.19-.02.28-.02v.03.24.03h.03.27.28.03v.28c0 .02.02.02.03.02h.24.03v.03.23.03c0 .01-.01.01-.02.01h-.57v-.03-.24-.03h-.03-.25-.03 0v-.28c-.01-.02-.02-.02-.03-.02h-.19-.09 0zm2.77-2.46V17h-.03-.24-.03v-.61h.1.48.03v.28c-.03.02-.07.02-.1.02h-.1-.1v.29c0 .01.02.01.03.01h.24.03v.28c-.1.02-.2.02-.31.02h0z"/><path d="M16.92 20.07h-.22-.08c-.01 0 0 .02 0 .03v.24.03h-.61v-.29c.02-.01.04-.01.06-.01h.06.06.12v-.03-.24-.03h.03.55.03 0v.31h0zm-.32-1.23c.02.03.02.15.02.28-.03.02-.05.02-.08.02h-.08-.07-.07v.03.24.03h-.29l-.01-.59m5.21-.01v.3h-.04-.84-.04v-.29c0-.01.01-.01.02-.01h.86.04zm-2.46 3.38v.1.1.1h.03.24.03v.29c0 .01-.02.01-.02.01h-.15-.4-.03v-.16-.41-.03h.29z"/><path d="M18.46 19.14h-.61v-.1-.18-.03h.03.31.24.03 0v.16.14h0zm3.69 0h-.03-.55-.03v-.28h.61v.31h0zm-.3.93h.6a2.62 2.62 0 0 1 .01.28h-.03-.47-.08c-.02-.09-.02-.19-.02-.28zm-4-.62h.03.24.03v.29c0 .01-.02.01-.03.01h-.24-.03v-.29-.03h0zm4.3 0v.03.26c-.09.02-.19.02-.28.02-.01-.06-.01-.28-.01-.3h.03.25.03zm-2.46.62h-.24-.07v-.29c0-.01.01-.01.02-.01h.27.02v.29.01zm-2.46 0v.28c0 .02-.01.02-.01.02h-.27c-.01-.11-.01-.21-.01-.3h0 .31 0z"/><path d="M17.85 19.45h-.3c-.01-.1-.01-.19-.01-.28.11-.01.21-.01.31-.01v.27.03zm-.62-.31h-.3v-.1-.1-.1h.29v.1.1.1zm2.46-1.54h-.29c-.02-.09-.02-.19-.02-.28.1-.01.19-.01.29-.01h0v.03.27zm2.46 1.55h.31v.3h-.29c-.02 0-.02-.02-.02-.03v-.24-.03zm-5.53-2.16h.92v.04.84.04h-.92v-.03-.85V17zm5.22.01v.92h-.04-.84-.03v-.03-.26-.59V17h.91zm-4.31 5.22h-.9l-.01-.9c0-.01.01-.01.02-.01h.87.04v.03.89z"/></svg>