<svg xmlns="http://www.w3.org/2000/svg" viewBox="0 0 24 24" fill="#f4f4f4" xmlns:v="https://vecta.io/nano"><path d="M12.36 1l.54.13c.52.14.99.39 1.37.77l4.18 4.17c.02.02.03.04.08.1h-.45c-1.03-.03-1.88.34-2.6 1.07l-3.07 3.08c-.39.39-.7.4-1.09 0L8.19 7.18c-.68-.7-1.49-1.02-2.45-1.01h-.27l.14-.16 4-4c.53-.53 1.17-.87 1.92-.97.03 0 .07-.02.1-.04h.73zm6.23 15.88h-.9c-.57-.05-1.05-.31-1.45-.72l-3.21-3.21c-.52-.52-1.25-.64-1.88-.31-.18.09-.35.23-.49.38l-3.08 3.07c-.53.54-1.16.82-1.93.79-.34-.01-.67 0-1.01 0a.41.41 0 0 1-.26-.11l-2.44-2.43c-1.27-1.31-1.26-3.36.02-4.66l2.41-2.4a.41.41 0 0 1 .28-.11h1.1c.71-.02 1.3.25 1.79.75l3.09 3.09c.79.79 1.71.79 2.5 0l3.07-3.08a2.41 2.41 0 0 1 1.87-.77h1.29a.47.47 0 0 1 .3.12l2.36 2.36c1.34 1.37 1.35 3.4 0 4.77l-2.39 2.39a.4.4 0 0 1-.26.1h-.77 0zm-13.1 1.01l1.19-.16c.58-.13 1.06-.45 1.48-.87l3.16-3.17c.37-.37.7-.37 1.06 0l3.05 3.06c.74.77 1.63 1.15 2.69 1.11h.3c.01 0 .03.01.06.02l-.12.14-3.93 3.93c-1.4 1.39-3.49 1.39-4.89 0L5.6 18.01l-.12-.13z"/></svg>